<?xml version="1.0" encoding="UTF-8"?>
<svg id="Layer_2" data-name="Layer 2" xmlns="http://www.w3.org/2000/svg" xmlns:xlink="http://www.w3.org/1999/xlink" viewBox="0 0 372.5 279.21">
  <defs>
    <style>
      .cls-1 {
        fill: none;
        stroke: #594a42;
        stroke-linecap: round;
        stroke-miterlimit: 10;
        stroke-width: 9px;
      }

      .cls-2 {
        fill-rule: evenodd;
      }

      .cls-2, .cls-3, .cls-4, .cls-5, .cls-6 {
        stroke-width: 0px;
      }

      .cls-2, .cls-6 {
        fill: #ffa8db;
      }

      .cls-3 {
        fill: #603913;
      }

      .cls-4 {
        fill: #c49a6c;
      }

      .cls-5 {
        fill: #8dd4ef;
      }
    </style>
    <symbol id="Pop_Logo" data-name="Pop Logo" viewBox="0 0 372.5 140.74">
      <g>
        <g>
          <path class="cls-5" d="m62.52,94.55c-.79-.46-1.53-.76-2.23-.83-.71-.07-1.39.07-2.06.48-1.35.81-1.66,2.07-.92,3.25.41.67.92,1.45,1.49,2.33s1.22,1.86,1.92,2.9,1.45,2.15,2.24,3.3c.78,1.15,1.6,2.34,2.43,3.54.83,1.2,1.68,2.41,2.52,3.61.61.87.97,1.84,1.11,2.84s.06,2.04-.21,3.05c-.27,1.01-.73,1.99-1.38,2.89-.64.9-1.46,1.71-2.45,2.39-1.06.73-2.02,1.41-2.93,2.06s-1.74,1.27-2.55,1.87-1.58,1.19-2.35,1.79c-.77.6-1.53,1.2-2.32,1.84s-1.6,1.3-2.47,2.03c-.86.72-1.78,1.5-2.77,2.37-.92.81-1.93,1.42-2.98,1.83-1.05.42-2.13.65-3.2.68-1.06.03-2.1-.13-3.05-.5-.95-.37-1.8-.95-2.5-1.75-.99-1.14-1.96-2.26-2.92-3.36-.96-1.1-1.91-2.18-2.84-3.23-.94-1.06-1.86-2.09-2.77-3.11-.91-1.01-1.82-2.01-2.71-2.98-.89-.97-1.78-1.93-2.65-2.86-.87-.93-1.74-1.84-2.6-2.74s-1.71-1.76-2.55-2.61-1.68-1.68-2.5-2.5c-.83-.81-1.65-1.61-2.47-2.38-.82-.77-1.63-1.53-2.43-2.26-.81-.74-1.61-1.45-2.4-2.15s-1.59-1.38-2.38-2.04c-.79-.66-1.58-1.31-2.36-1.93-.78-.63-1.56-1.23-2.34-1.83-.7-.53-1.21-1.21-1.54-2.01-.33-.8-.47-1.7-.42-2.68s.27-2.02.67-3.08c.4-1.06.98-2.15,1.72-3.2.74-1.05,1.66-2.07,2.72-3.01,1.09-.96,2.12-1.85,3.11-2.69.98-.84,1.92-1.62,2.83-2.37s1.78-1.46,2.64-2.15c.86-.69,1.71-1.36,2.56-2.02.85-.66,1.71-1.32,2.58-1.98s1.77-1.33,2.71-2.02,1.91-1.39,2.95-2.13c1.04-.73,2.13-1.5,3.31-2.3,1.37-.94,2.8-1.63,4.21-2.08s2.78-.66,4.03-.63,2.4.29,3.35.78,1.71,1.2,2.21,2.12c.42.78.84,1.52,1.24,2.17.47.77,1.14,1.23,1.91,1.38.76.15,1.61-.01,2.44-.5.76-.45,1.34-1.07,1.77-1.84.43-.77.73-1.68.92-2.7.15-.86.32-1.73.53-2.62.21-.89.47-1.79.78-2.71s.67-1.84,1.09-2.76c.43-.93.92-1.85,1.48-2.78.57-.92,1.21-1.85,1.94-2.76s1.55-1.81,2.48-2.69c.92-.88,1.94-1.74,3.08-2.57,1.13-.83,2.38-1.63,3.74-2.39,1.36-.76,2.85-1.48,4.46-2.14,1.52-.62,3.03-1.17,4.51-1.63s2.95-.85,4.39-1.15c1.44-.31,2.85-.54,4.23-.69,1.38-.15,2.73-.24,4.04-.24,1.31,0,2.58.05,3.81.19,1.23.13,2.42.33,3.56.6,1.14.27,2.24.6,3.29,1,1.05.4,2.05.85,2.99,1.37s1.84,1.1,2.68,1.73c.84.64,1.62,1.33,2.35,2.08.73.75,1.4,1.55,2.01,2.4s1.17,1.76,1.67,2.71c.5.95.94,1.96,1.32,3.01.38,1.05.71,2.15.98,3.29.33,1.41.57,2.81.71,4.18.15,1.37.21,2.72.18,4.03s-.13,2.61-.31,3.86c-.18,1.26-.44,2.48-.77,3.67s-.73,2.35-1.2,3.47-1,2.2-1.6,3.25-1.26,2.05-1.99,3.01c-.73.97-1.52,1.89-2.37,2.77-.85.88-1.76,1.73-2.73,2.53-.97.8-2.01,1.56-3.1,2.28-1.1.72-2.25,1.4-3.48,2.03-1.22.64-2.51,1.23-3.86,1.78-1.52.62-3,1.13-4.43,1.53-1.44.4-2.83.69-4.19.89-1.36.2-2.68.31-3.96.33s-2.52-.03-3.72-.14-2.36-.3-3.46-.54c-1.11-.24-2.17-.53-3.18-.86-1.01-.33-1.96-.7-2.85-1.1s-1.72-.82-2.47-1.26Zm-1.46-10.96c1.34-.74,2.5-1.63,3.47-2.63.97-.99,1.75-2.08,2.31-3.2.56-1.12.9-2.26.99-3.37s-.07-2.17-.52-3.11c-.43-.9-1.1-1.56-1.94-1.97s-1.86-.57-3-.45c-1.13.11-2.38.5-3.65,1.17-1.41.74-2.62,1.67-3.6,2.72s-1.74,2.2-2.24,3.37c-.51,1.17-.76,2.36-.75,3.49,0,1.13.28,2.19.83,3.11.49.83,1.18,1.41,2,1.75.82.34,1.78.43,2.81.29,1.03-.15,2.15-.54,3.3-1.17Z"/>
          <path class="cls-5" d="m115.94,52.48c.37,1.85.9,3.63,1.56,5.35.66,1.72,1.46,3.37,2.38,4.95.92,1.58,1.96,3.1,3.11,4.55,5.65,7.14,14.66,12.74,23.54,14.76,4.1.93,8.39,1.35,12.57,2.13-3.88-.73-9.86-15.51-6.43-19.8,3.86-4.83,16.76,2.47,20.64,4.55-.33-3.15-.66-6.33-.34-9.48.4-3.9,2.11-9.49,6.63-10.32,3.92-.72,17,14.96,18.01,20.73-.29-1.68,3.41-5.39,4.49-6.47,2.08-2.09,4.58-3.78,7.29-4.93,3.57-1.51,8.05-.43,8.48,3.92.27,2.7-1.41,3.97-2.68,6.06-1.62,2.66-2.78,5.71-3.67,8.68,1.26-4.19,17.62-5.55,16.12-.31-.93,3.28-7.68,7.38-10.6,8.83,11.77-1.94,26.51-7.51,34.3-16.92,1.18-1.42,2.25-2.92,3.21-4.48s1.79-3.19,2.49-4.89,1.27-3.47,1.68-5.31c.37-1.65.63-3.29.76-4.93.13-1.63.15-3.26.04-4.87-.11-1.61-.33-3.21-.68-4.79-.35-1.58-.82-3.15-1.41-4.69s-1.31-3.07-2.14-4.56c-.84-1.49-1.79-2.96-2.87-4.4-1.08-1.43-2.27-2.84-3.58-4.2-1.31-1.36-2.74-2.68-4.29-3.96-1.54-1.27-3.2-2.5-4.97-3.68-1.77-1.17-3.65-2.29-5.64-3.35-1.99-1.06-4.08-2.05-6.27-2.98-2.19-.93-4.49-1.78-6.88-2.56s-4.87-1.48-7.44-2.09c-2.57-.62-5.23-1.15-7.97-1.58-2.74-.44-5.56-.78-8.45-1.02-2.89-.24-5.85-.39-8.87-.42-3.04-.04-6.02.04-8.92.22s-5.75.46-8.51.83c-2.76.37-5.44.84-8.04,1.4-2.6.56-5.1,1.2-7.52,1.93-2.41.72-4.74,1.53-6.96,2.41-2.22.88-4.34,1.82-6.36,2.84s-3.93,2.09-5.73,3.22c-1.8,1.13-3.49,2.32-5.07,3.56-1.58,1.24-3.04,2.53-4.38,3.86-1.35,1.33-2.57,2.71-3.68,4.12s-2.1,2.86-2.97,4.33c-.87,1.48-1.62,2.98-2.25,4.51-.63,1.53-1.14,3.08-1.52,4.66-.39,1.57-.65,3.17-.79,4.78-.14,1.61-.17,3.23-.07,4.87.1,1.64.32,3.28.65,4.94Z"/>
          <path class="cls-5" d="m304.11,91.15c-.02-.97-.16-1.8-.48-2.48-.32-.68-.82-1.21-1.56-1.59-1.47-.76-2.76-.34-3.42.99-.36.71-.77,1.57-1.22,2.53-.45.96-.95,2.03-1.47,3.18s-1.08,2.38-1.65,3.66c-.57,1.28-1.16,2.61-1.76,3.97-.6,1.35-1.2,2.73-1.79,4.1-.5,1.15-1.26,2.12-2.18,2.89s-2.01,1.34-3.19,1.7c-1.18.36-2.44.51-3.73.44s-2.59-.38-3.86-.93c-1.3-.57-2.48-1.07-3.58-1.52-1.1-.45-2.13-.86-3.13-1.25s-1.98-.76-2.99-1.13-2.05-.74-3.17-1.13-2.33-.79-3.67-1.23c-1.31-.42-2.47-1.05-3.47-1.84-1-.79-1.83-1.73-2.46-2.78s-1.06-2.19-1.23-3.37-.1-2.4.28-3.6c.5-1.57,1-3.12,1.48-4.65.48-1.52.94-3.02,1.4-4.5.45-1.47.89-2.93,1.32-4.35.43-1.43.84-2.83,1.23-4.22.4-1.38.78-2.75,1.15-4.09.37-1.34.72-2.66,1.07-3.96.34-1.3.67-2.58.98-3.85.31-1.26.61-2.51.89-3.74s.55-2.44.8-3.63c.25-1.19.49-2.37.71-3.53s.43-2.31.62-3.44c.19-1.13.37-2.25.53-3.35s.31-2.19.44-3.27c.13-1.03.5-1.96,1.09-2.78.59-.82,1.39-1.52,2.35-2.08s2.1-.98,3.36-1.24c1.25-.26,2.63-.35,4.06-.26,1.44.09,2.94.37,4.45.85,1.42.45,2.74.89,3.99,1.31s2.41.82,3.54,1.22,2.2.79,3.26,1.18c1.06.39,2.11.79,3.16,1.2s2.13.83,3.24,1.28,2.26.92,3.48,1.43c1.22.51,2.5,1.06,3.88,1.67,1.4.62,2.68,1.37,3.8,2.22s2.08,1.79,2.86,2.78c.78.99,1.38,2.02,1.77,3.05.39,1.03.59,2.06.56,3.05-.03.99-.28,1.93-.76,2.8-.3.54-.58,1.06-.83,1.55-.43.85-.48,1.72-.19,2.49.28.77.9,1.44,1.79,1.92.83.44,1.7.61,2.63.57.93-.04,1.91-.28,2.94-.68.85-.35,1.74-.68,2.66-.98.92-.3,1.88-.58,2.88-.81,1-.23,2.03-.42,3.11-.55,1.08-.13,2.19-.2,3.35-.2,1.16,0,2.35.07,3.59.24s2.52.41,3.84.76c1.32.35,2.69.81,4.09,1.39,1.4.58,2.84,1.27,4.32,2.11,1.47.83,2.98,1.8,4.52,2.92,1.45,1.06,2.82,2.15,4.1,3.27,1.29,1.12,2.49,2.27,3.62,3.44,1.12,1.17,2.16,2.36,3.11,3.57.95,1.2,1.82,2.42,2.6,3.65s1.48,2.46,2.08,3.69c.61,1.23,1.13,2.46,1.56,3.69s.78,2.44,1.04,3.65c.26,1.21.43,2.4.52,3.59.09,1.18.09,2.34,0,3.49-.08,1.14-.25,2.27-.5,3.37-.25,1.1-.59,2.17-1,3.22-.42,1.05-.92,2.07-1.49,3.06-.58.99-1.24,1.95-1.98,2.89-.74.93-1.55,1.83-2.44,2.7-1.02.99-2.07,1.9-3.15,2.72-1.08.82-2.19,1.56-3.31,2.22-1.13.66-2.27,1.24-3.44,1.74-1.16.5-2.34.93-3.53,1.28-1.19.35-2.39.63-3.59.83-1.2.2-2.42.34-3.63.4-1.21.06-2.43.06-3.65-.01-1.22-.07-2.44-.21-3.65-.42-1.22-.21-2.43-.48-3.64-.82s-2.42-.74-3.63-1.22c-1.21-.47-2.41-1.01-3.61-1.61-1.2-.6-2.39-1.27-3.59-2-1.19-.73-2.38-1.54-3.57-2.4-1.45-1.06-2.76-2.14-3.94-3.24-1.19-1.1-2.25-2.21-3.2-3.34-.95-1.13-1.8-2.28-2.55-3.43s-1.4-2.31-1.97-3.46c-.57-1.15-1.05-2.31-1.45-3.44-.4-1.14-.73-2.26-.99-3.35-.26-1.09-.45-2.16-.59-3.19-.13-1.03-.21-2.01-.23-2.94Zm9.08-7.43c1.41.8,2.87,1.35,4.31,1.68,1.44.33,2.87.43,4.19.32,1.33-.11,2.56-.43,3.62-.96,1.05-.53,1.93-1.26,2.53-2.2.57-.89.79-1.86.69-2.86-.11-1-.54-2.01-1.28-2.98-.74-.97-1.79-1.88-3.11-2.67-1.45-.87-2.98-1.44-4.47-1.75-1.49-.31-2.95-.35-4.28-.15s-2.55.63-3.56,1.27c-1.01.64-1.81,1.48-2.34,2.49-.48.91-.62,1.85-.47,2.78.15.93.59,1.84,1.29,2.7.7.85,1.67,1.64,2.89,2.33Z"/>
        </g>
        <g>
          <path class="cls-3" d="m72.2,138.63l.73,1.14c-.6.39-.9.58-1.5.97-1-1.52-1.83-2.78-2.6-3.96-.77-1.18-1.5-2.28-2.27-3.46-.77-1.18-1.61-2.44-2.6-3.96.66-.43.99-.65,1.64-1.07.69,1.07,1.21,1.87,1.72,2.67.52.8,1.03,1.6,1.72,2.67.02-.01.03-.02.05-.03.04-.53.23-1.07.57-1.63.33-.56.84-1.05,1.52-1.48.61-.38,1.23-.62,1.85-.74.62-.11,1.22-.1,1.79.03s1.1.38,1.57.73c.47.35.87.8,1.19,1.34s.52,1.1.61,1.69c.09.59.07,1.16-.07,1.72-.14.56-.39,1.09-.75,1.58-.37.5-.85.93-1.46,1.31-.56.35-1.17.57-1.82.67-.65.09-1.27.02-1.86-.21-.01,0-.02.01-.03.02Zm3.75-5.79c-.2-.34-.46-.63-.77-.88s-.65-.43-1.03-.53-.78-.13-1.21-.06c-.43.07-.86.24-1.31.52-.41.26-.74.56-.99.92-.25.35-.41.73-.5,1.12-.08.39-.09.79-.02,1.18.07.4.22.76.44,1.11.22.34.5.63.83.86.33.23.69.39,1.07.48.39.09.79.1,1.2.03.42-.07.82-.22,1.23-.47.43-.27.77-.58,1.01-.93.24-.35.4-.72.47-1.1.08-.38.07-.77,0-1.15-.08-.39-.22-.75-.42-1.09Z"/>
          <path class="cls-3" d="m91.08,129.27c-.12-.18-.25-.39-.39-.62-.14-.23-.24-.43-.33-.59-.01,0-.02.01-.03.02,0,.51-.17,1.04-.51,1.57-.34.54-.8.96-1.4,1.28-.52.28-1.02.44-1.49.49-.47.05-.9,0-1.3-.14-.4-.14-.76-.37-1.08-.67s-.6-.66-.83-1.08c-.51-.93-.9-1.62-1.28-2.32-.38-.69-.77-1.39-1.28-2.32.66-.37,1-.55,1.66-.91.9,1.66,1.35,2.49,2.25,4.15.17.31.35.58.55.84.2.25.43.45.68.58.25.14.53.2.84.2.31,0,.65-.1,1.03-.3.65-.35,1.06-.85,1.23-1.51.17-.66.06-1.37-.33-2.13-.83-1.61-1.25-2.42-2.08-4.03.67-.35,1.01-.52,1.68-.86.6,1.2,1.06,2.09,1.51,2.99.45.9.91,1.79,1.51,2.99.1.2.24.46.41.78.17.32.33.59.48.83-.61.31-.92.47-1.53.78Z"/>
          <path class="cls-3" d="m99.92,123.49c.22.49.33.74.56,1.23-.64.29-.96.44-1.59.73-.76-1.65-1.4-3.02-1.99-4.3-.59-1.28-1.15-2.47-1.74-3.75-.59-1.28-1.23-2.65-1.99-4.3.7-.32,1.05-.48,1.75-.8.53,1.16.92,2.03,1.31,2.9.39.87.79,1.74,1.31,2.9.02-.01.03-.02.06-.02.12-.51.37-1.02.77-1.52.4-.5.96-.91,1.68-1.22.65-.28,1.28-.43,1.9-.45.62-.02,1.2.08,1.74.3.54.22,1.02.54,1.43.96.41.42.74.92.98,1.5s.36,1.16.37,1.76c0,.59-.09,1.16-.3,1.69-.21.53-.53,1.01-.95,1.45-.43.44-.96.79-1.6,1.07-.6.26-1.22.39-1.87.38s-1.24-.17-1.78-.49c-.01,0-.02,0-.04.02Zm4.45-5.14c-.15-.36-.36-.69-.63-.98-.27-.29-.57-.52-.93-.68-.35-.16-.74-.24-1.17-.24s-.87.1-1.35.31c-.44.19-.8.44-1.09.75-.29.31-.5.66-.64,1.03-.13.38-.19.76-.18,1.16.02.4.11.79.28,1.16s.4.69.69.97c.29.28.62.49.98.63.36.14.75.22,1.17.21.42,0,.83-.1,1.26-.28.46-.2.83-.46,1.11-.77.28-.31.48-.65.61-1.01.13-.37.18-.74.15-1.14-.02-.39-.11-.77-.27-1.14Z"/>
          <path class="cls-3" d="m114.84,117.38c.19.51.28.76.46,1.27-.65.24-.98.36-1.63.6-.64-1.7-1.17-3.12-1.67-4.44s-.96-2.55-1.45-3.87c-.5-1.32-1.03-2.74-1.67-4.44.71-.27,1.07-.4,1.79-.66.44,1.19.77,2.09,1.09,2.99.33.9.66,1.79,1.09,2.99.02,0,.03-.01.06-.02.15-.5.44-.99.88-1.46.44-.47,1.02-.83,1.76-1.09.66-.23,1.3-.33,1.92-.3.62.03,1.19.18,1.71.43.52.26.97.61,1.35,1.06.38.45.67.97.86,1.57.19.59.27,1.19.23,1.78-.04.59-.18,1.14-.42,1.66-.25.51-.6.97-1.05,1.37-.45.4-1.01.72-1.67.95-.61.21-1.23.29-1.88.23-.64-.06-1.22-.27-1.73-.63-.01,0-.02,0-.04.01Zm4.78-4.78c-.13-.37-.31-.72-.55-1.03-.24-.31-.53-.56-.87-.75-.34-.19-.72-.3-1.14-.33-.42-.03-.87.04-1.36.21-.45.16-.83.38-1.13.67-.31.29-.54.62-.71.98s-.25.75-.26,1.15c-.01.4.05.79.19,1.17.14.38.34.72.61,1.02.27.3.58.53.92.71.35.17.73.27,1.14.3.41.03.83-.03,1.27-.18.47-.17.86-.39,1.16-.68.3-.29.53-.61.68-.96s.23-.73.23-1.12c0-.39-.06-.78-.18-1.15Z"/>
          <path class="cls-3" d="m130.5,113.72c-.69.19-1.03.29-1.72.49-.51-1.74-.94-3.19-1.33-4.55-.4-1.35-.77-2.61-1.16-3.97-.4-1.36-.82-2.81-1.33-4.55.73-.21,1.09-.32,1.82-.53.5,1.75.91,3.2,1.29,4.56.39,1.36.74,2.62,1.13,3.98.39,1.36.8,2.81,1.29,4.56Z"/>
          <path class="cls-3" d="m144.48,105.82c.02.09.04.19.06.28.02.09.03.19.04.29-1.42.3-2.49.53-3.55.77-1.06.24-2.13.48-3.54.83.1.34.26.65.49.92.23.27.5.49.82.65.31.16.66.27,1.03.32.37.05.75.03,1.13-.06.59-.14,1.08-.37,1.46-.72.38-.34.66-.72.83-1.12.57.27.86.4,1.43.67-.35.69-.81,1.24-1.38,1.66-.58.42-1.25.71-2.02.89-.66.15-1.3.19-1.92.11-.62-.08-1.17-.25-1.67-.53-.5-.28-.94-.66-1.3-1.13-.37-.48-.64-1.04-.8-1.69-.16-.64-.19-1.26-.1-1.86.1-.6.31-1.15.64-1.63.32-.49.75-.91,1.28-1.26.52-.35,1.12-.61,1.79-.76.67-.15,1.3-.19,1.89-.11s1.11.27,1.57.56c.46.3.85.69,1.16,1.18.32.49.54,1.07.68,1.74Zm-1.96-.28c-.08-.33-.21-.62-.38-.89-.17-.26-.38-.48-.64-.64-.26-.17-.55-.27-.89-.33s-.72-.03-1.14.06c-.38.09-.73.23-1.04.43-.31.2-.56.44-.76.71-.2.27-.34.57-.43.89-.09.32-.11.65-.05.99,1.06-.26,1.86-.44,2.66-.63s1.6-.36,2.67-.6Z"/>
          <path class="cls-3" d="m161.67,98.98c.47-.38,1.06-.61,1.77-.69.62-.07,1.2,0,1.73.21.53.21.97.6,1.31,1.18.25-.58.65-1.05,1.18-1.39.53-.35,1.13-.55,1.79-.61.6-.05,1.12,0,1.57.15.44.15.82.37,1.13.66.31.29.55.64.71,1.05.17.41.27.85.3,1.33.08,1.06.13,1.85.19,2.64.06.79.11,1.58.19,2.64-.71.05-1.06.08-1.77.13-.15-1.89-.23-2.83-.38-4.72-.03-.35-.09-.67-.18-.98s-.22-.57-.4-.8c-.17-.23-.4-.4-.67-.52-.27-.12-.61-.16-1.01-.13-.41.04-.76.15-1.04.34s-.5.42-.67.7c-.16.28-.27.58-.32.91-.05.33-.06.66-.03,1,.18,1.83.28,2.75.46,4.59-.71.07-1.06.11-1.76.18-.11-1.01-.19-1.77-.27-2.52-.08-.76-.16-1.52-.27-2.52-.04-.33-.1-.63-.2-.9-.09-.27-.23-.49-.41-.67-.18-.18-.4-.31-.65-.4-.26-.09-.57-.11-.93-.06-.67.08-1.2.4-1.58.96-.38.56-.51,1.27-.4,2.11.23,1.8.35,2.7.58,4.5-.7.09-1.06.14-1.76.23-.18-1.33-.32-2.32-.45-3.32-.14-1-.27-1.99-.45-3.32-.03-.23-.08-.52-.14-.87-.06-.35-.12-.67-.19-.94.69-.1,1.04-.14,1.73-.23.05.21.1.45.15.72.05.27.08.49.11.67.02,0,.04,0,.06,0,.17-.48.5-.91.97-1.29Z"/>
          <path class="cls-3" d="m182.01,94.09c0,.31-.1.57-.34.79s-.52.32-.86.34c-.34.01-.63-.08-.88-.28-.24-.2-.37-.45-.38-.75-.01-.31.09-.58.32-.8.23-.22.52-.34.86-.35.34-.01.64.08.89.29.25.2.38.46.39.77Zm.07,11.62c-.71.02-1.06.04-1.77.06-.07-1.71-.12-2.99-.17-4.27-.05-1.28-.1-2.56-.17-4.26.74-.03,1.1-.04,1.84-.07.05,1.71.1,2.99.14,4.27s.08,2.56.14,4.27Z"/>
          <path class="cls-3" d="m190.75,105.61c-.71,0-1.06,0-1.77,0,0-1.82,0-3.33,0-4.74s0-2.72,0-4.14c0-1.41,0-2.93,0-4.74.75,0,1.13,0,1.88,0-.02,1.82-.03,3.33-.04,4.74-.01,1.41-.02,2.72-.04,4.14-.01,1.41-.03,2.92-.04,4.74Z"/>
          <path class="cls-3" d="m199.64,101.04s.03,0,.06,0c.8-.7,1.41-1.23,2.02-1.75.61-.52,1.23-1.04,2.05-1.73.99.07,1.48.1,2.46.18-.93.7-1.62,1.24-2.3,1.77-.69.54-1.37,1.07-2.27,1.8.87.99,1.52,1.73,2.15,2.47.64.75,1.27,1.49,2.1,2.5-.98-.08-1.47-.11-2.44-.18-.74-.94-1.31-1.64-1.88-2.34-.57-.7-1.15-1.4-1.93-2.32-.02,0-.03,0-.06,0-.09,1.77-.13,2.65-.22,4.43-.71-.03-1.06-.05-1.77-.08.07-1.81.14-3.33.19-4.74.06-1.41.11-2.72.17-4.13.06-1.41.12-2.92.19-4.74.75.03,1.13.05,1.88.08-.09,1.76-.15,3.07-.22,4.39-.06,1.32-.13,2.63-.22,4.39Z"/>
          <path class="cls-3" d="m225.19,101.44c-.97-.16-1.46-.24-2.43-.39-.27,1.75-.41,2.63-.68,4.38-.08.51-.04.89.13,1.14s.47.41.91.48c.16.03.34.04.53.04.19,0,.37-.02.53-.06-.07.55-.1.83-.17,1.38-.22.04-.46.05-.73.05s-.53-.02-.8-.07c-.83-.13-1.44-.45-1.81-.95-.38-.51-.5-1.2-.37-2.08l.67-4.58c-.7-.1-1.06-.15-1.76-.25.08-.55.11-.82.19-1.37.71.1,1.06.15,1.77.25.14-.97.21-1.45.36-2.42.73.11,1.1.16,1.83.27-.15.97-.22,1.45-.38,2.42.98.15,1.47.23,2.44.39-.09.55-.14.82-.23,1.37Z"/>
          <path class="cls-3" d="m238.74,107.02c-.02.09-.04.19-.07.28-.02.09-.05.19-.08.28-1.42-.33-2.48-.57-3.54-.8-1.06-.23-2.13-.46-3.55-.74-.06.35-.04.7.06,1.04.09.34.25.65.46.93.22.28.48.52.8.72.31.2.67.34,1.05.42.6.13,1.14.12,1.63-.03.49-.15.9-.37,1.23-.67.41.48.61.73,1.02,1.21-.61.48-1.26.79-1.96.92-.7.14-1.43.12-2.21-.04-.67-.14-1.26-.38-1.79-.7-.53-.33-.96-.72-1.29-1.19-.33-.46-.57-.99-.7-1.58-.13-.59-.14-1.21-.01-1.87.12-.65.35-1.23.7-1.73.34-.5.76-.91,1.26-1.21.5-.31,1.06-.51,1.69-.61.62-.1,1.27-.08,1.94.06s1.26.38,1.76.7c.5.32.9.71,1.19,1.17.29.46.48.98.56,1.56.08.58.04,1.2-.12,1.87Zm-1.66-1.08c.06-.33.07-.65.03-.96-.04-.31-.15-.6-.31-.85-.16-.26-.39-.48-.67-.67-.29-.19-.64-.33-1.06-.42-.38-.08-.76-.1-1.12-.04-.36.05-.69.16-.98.32-.29.16-.55.37-.76.63-.22.26-.37.55-.46.87,1.07.21,1.87.38,2.67.55.8.17,1.6.34,2.67.58Z"/>
          <path class="cls-3" d="m250.66,108.93c.18-.61.11-1.12-.21-1.53-.32-.41-.81-.71-1.48-.9-.5-.14-1.01-.19-1.5-.13-.5.06-.93.18-1.31.38-.27-.52-.4-.78-.67-1.3.54-.27,1.17-.42,1.87-.47.7-.05,1.42.04,2.16.24.65.18,1.18.43,1.61.73.43.31.75.65.96,1.02.22.38.34.79.37,1.22.03.44-.02.88-.15,1.33-.43,1.43-.65,2.14-1.08,3.57-.08.28-.16.57-.24.88-.07.31-.12.57-.13.78-.62-.19-.93-.28-1.55-.46.02-.42.08-.83.2-1.22-.02,0-.03,0-.05-.02-.45.35-.94.57-1.5.67s-1.15.06-1.81-.12c-.34-.1-.69-.24-1.03-.42s-.65-.42-.9-.7c-.25-.28-.44-.61-.56-.99-.12-.38-.12-.81,0-1.28.16-.63.47-1.08.93-1.35.46-.27,1.01-.42,1.65-.45.64-.03,1.33.03,2.09.18.75.15,1.5.33,2.25.55.03-.09.04-.13.07-.22Zm-.84,1.28c-.43-.13-.89-.24-1.37-.34-.48-.1-.92-.15-1.32-.15-.41,0-.76.07-1.07.21-.31.14-.5.39-.6.73-.07.24-.07.46,0,.65.06.19.16.36.31.51.14.15.31.28.51.37.2.1.41.18.63.24.81.23,1.49.18,2.06-.15.57-.33.96-.84,1.16-1.53.05-.17.08-.26.13-.43-.17-.05-.26-.08-.43-.12Z"/>
          <path class="cls-3" d="m273.66,116.17c-.08-.33-.26-.66-.56-.98-.3-.32-.65-.57-1.07-.74-.45-.18-.89-.27-1.3-.25-.41.02-.79.11-1.14.27-.35.17-.65.4-.92.7s-.47.64-.62,1.02c-.15.38-.23.77-.23,1.17,0,.4.05.77.19,1.13.14.36.35.68.63.98.28.29.65.53,1.09.71.43.17.85.26,1.26.24.42-.01.79-.1,1.13-.27.29.57.44.85.72,1.42-.52.24-1.09.35-1.71.35s-1.27-.14-1.94-.42c-.65-.26-1.21-.6-1.68-1.02-.47-.42-.84-.89-1.11-1.41-.27-.52-.42-1.08-.46-1.69-.04-.61.06-1.23.3-1.87.24-.63.57-1.16,1-1.58.43-.43.92-.75,1.49-.95.56-.21,1.17-.3,1.82-.27.65.03,1.31.17,1.98.44.62.25,1.18.61,1.7,1.09.52.47.86,1,1.04,1.57-.65.15-.98.23-1.62.39Z"/>
          <path class="cls-3" d="m285.15,122.29c.28-.57.3-1.09.05-1.55-.25-.46-.69-.85-1.33-1.15-.48-.23-.97-.36-1.48-.39-.51-.03-.96.02-1.37.15-.18-.56-.27-.84-.45-1.4.59-.17,1.23-.22,1.94-.14.71.08,1.41.28,2.11.62.62.29,1.11.63,1.49,1.01.38.38.64.77.79,1.18.15.41.21.84.17,1.27-.04.44-.16.86-.37,1.28-.67,1.33-1,2-1.66,3.34-.13.26-.25.53-.38.83-.12.29-.21.54-.25.75-.59-.29-.88-.44-1.47-.73.09-.41.22-.8.4-1.17-.02-.01-.03-.02-.05-.03-.5.26-1.04.4-1.6.4-.57,0-1.16-.14-1.79-.43-.33-.15-.65-.35-.96-.6-.32-.25-.58-.53-.79-.85-.21-.32-.34-.68-.39-1.07-.06-.39.02-.82.22-1.26.27-.59.65-.98,1.15-1.17.5-.19,1.07-.24,1.72-.16.64.08,1.33.26,2.06.54.73.28,1.45.59,2.16.94.04-.08.06-.13.1-.21Zm-1.05,1.11c-.41-.2-.85-.39-1.31-.57-.46-.18-.89-.3-1.3-.38s-.77-.06-1.1.02c-.33.09-.57.29-.72.62-.11.23-.14.44-.11.64.03.2.1.39.22.56.12.17.27.33.45.46.18.13.38.25.59.35.77.36,1.46.44,2.08.21.62-.23,1.09-.66,1.41-1.31.08-.16.12-.24.2-.4-.16-.08-.24-.12-.41-.2Z"/>
          <path class="cls-3" d="m297.73,127.08c-.77-.44-1.16-.65-1.93-1.08-.69,1.25-1.21,2.19-1.73,3.13l-1.73,3.13c-.64-.35-.96-.53-1.6-.88.68-1.26,1.19-2.2,1.7-3.14.51-.94,1.02-1.89,1.7-3.14-.66-.36-.99-.54-1.66-.89l.65-1.23c.67.35,1,.53,1.67.9.34-.63.51-.94.85-1.57.24-.44.52-.82.84-1.13.32-.31.68-.54,1.09-.67.41-.13.86-.17,1.35-.1.49.06,1.03.26,1.6.58.41.23.74.47,1,.71-.37.46-.55.69-.92,1.16-.11-.11-.23-.21-.35-.3-.12-.1-.26-.19-.43-.28-.32-.18-.61-.28-.86-.29-.25-.01-.48.04-.68.15-.2.11-.38.26-.53.46-.16.2-.3.41-.42.64-.34.62-.52.94-.86,1.56.78.43,1.17.65,1.94,1.08-.27.48-.41.72-.68,1.21Z"/>
          <path class="cls-3" d="m308.77,137.11c-.05.08-.11.16-.16.24-.05.08-.11.16-.17.23-1.26-.83-2.21-1.44-3.16-2.04-.95-.6-1.91-1.2-3.19-1.98-.17.31-.27.65-.3,1s.02.71.13,1.05c.11.34.29.66.53.97.24.3.53.56.87.78.53.33,1.06.52,1.58.56.52.04.99-.03,1.41-.18.23.6.35.91.58,1.51-.75.23-1.48.29-2.21.16-.72-.12-1.43-.4-2.12-.84-.6-.37-1.09-.81-1.49-1.31-.4-.5-.68-1.03-.85-1.58-.17-.56-.22-1.14-.15-1.74.07-.6.27-1.19.62-1.77.34-.57.76-1.03,1.26-1.38.5-.35,1.04-.58,1.63-.69.59-.11,1.2-.1,1.84.03.64.13,1.26.38,1.86.76s1.09.81,1.47,1.29.63,1,.76,1.54c.13.54.13,1.1.01,1.67-.12.58-.37,1.15-.74,1.72Zm-1.24-1.62c.17-.29.29-.59.35-.9.06-.31.06-.62-.01-.92-.07-.3-.21-.6-.42-.88-.21-.28-.51-.54-.88-.78-.34-.22-.7-.36-1.07-.45-.37-.08-.72-.1-1.06-.05-.34.05-.65.15-.95.32-.3.16-.54.38-.74.66.96.59,1.68,1.03,2.4,1.48.72.45,1.44.9,2.39,1.52Z"/>
        </g>
      </g>
    </symbol>
  </defs>
  <g id="Layer_1-2" data-name="Layer 1">
    <g>
      <g>
        <path class="cls-4" d="m171.08,275.21c-13.54,0-25.05-10.61-26.77-24.68l-11.18-108.66,111.63.56-13.55,108.75c-2.07,13.96-13.28,24.03-26.68,24.03h-33.44Z"/>
        <path class="cls-6" d="m137.57,145.89l102.67.52-13,104.28c-1.75,11.81-11.39,20.52-22.71,20.52h-33.44c-11.56,0-21.32-9.06-22.8-21.17l-10.72-104.15m-8.87-8.04l.91,8.86,10.72,104.15v.08s.02.08.02.08c1.97,16.07,15.18,28.19,30.74,28.19h33.44c7.46,0,14.68-2.8,20.31-7.9,5.53-5,9.2-11.91,10.32-19.45v-.09s.03-.09.03-.09l13-104.28,1.11-8.94-9.01-.05-102.67-.52-8.91-.04h0Z"/>
      </g>
      <polygon class="cls-2" points="182.32 76.26 194.55 76.26 194.55 228.57 182.32 238.58 182.32 76.26"/>
      <circle class="cls-3" cx="169.89" cy="257.35" r="7.39"/>
      <circle class="cls-3" cx="186.92" cy="257.35" r="7.39"/>
      <circle class="cls-3" cx="194.6" cy="237.66" r="7.39"/>
      <circle class="cls-3" cx="214.23" cy="242.57" r="7.39"/>
      <circle class="cls-3" cx="211.54" cy="221.79" r="7.39"/>
      <circle class="cls-3" cx="192.06" cy="199.77" r="7.39"/>
      <circle class="cls-3" cx="180.19" cy="224.97" r="7.39"/>
      <circle class="cls-3" cx="176.81" cy="242.12" r="7.39"/>
      <circle class="cls-3" cx="159.87" cy="241.89" r="7.39"/>
      <circle class="cls-3" cx="205.23" cy="259.35" r="7.39"/>
      <line class="cls-1" x1="128.41" y1="142.27" x2="250.03" y2="142.27"/>
    </g>
    <use width="372.5" height="140.74" xlink:href="#Pop_Logo"/>
  </g>
</svg>